<svg width="17" height="18" viewBox="0 0 17 18" fill="none" xmlns="http://www.w3.org/2000/svg">
<path d="M16.8761 12.7193L15.0067 9.47993V6.10714C15.0067 2.73966 12.0879 0 8.50012 0C4.91236 0 1.99349 2.73966 1.99349 6.10714V9.47993L0.124039 12.7192C0.0392609 12.8661 -0.00340825 13.0312 0.00021268 13.1982C0.00383361 13.3652 0.0536203 13.5285 0.144694 13.672C0.235768 13.8155 0.365006 13.9344 0.519743 14.0169C0.67448 14.0995 0.849409 14.1429 1.02739 14.1429H4.74879C4.73841 14.2497 4.73317 14.357 4.73308 14.4643C4.73308 15.402 5.12996 16.3013 5.83641 16.9644C6.54286 17.6275 7.50101 18 8.50008 18C9.49914 18 10.4573 17.6275 11.1637 16.9644C11.8702 16.3013 12.2671 15.402 12.2671 14.4643C12.2671 14.3558 12.2615 14.2488 12.2514 14.1429H15.9728C16.1507 14.1428 16.3256 14.0994 16.4803 14.0169C16.6351 13.9343 16.7643 13.8155 16.8553 13.672C16.9464 13.5284 16.9962 13.3652 16.9998 13.1982C17.0034 13.0312 16.9607 12.8662 16.876 12.7193H16.8761ZM10.8973 14.4643C10.8976 14.7735 10.8299 15.0794 10.6986 15.363C10.5673 15.6466 10.3751 15.9017 10.1341 16.1125C9.89302 16.3232 9.60828 16.4851 9.29761 16.588C8.98695 16.6908 8.65703 16.7325 8.32844 16.7103C7.99986 16.6882 7.67966 16.6027 7.38784 16.4593C7.09602 16.3158 6.83883 16.1174 6.63234 15.8765C6.42584 15.6356 6.27447 15.3573 6.18766 15.059C6.10086 14.7607 6.08048 14.4489 6.12781 14.1429H10.8724C10.8888 14.2493 10.8972 14.3567 10.8973 14.4643V14.4643ZM1.60233 12.8571L3.36331 9.80578V6.10714C3.36331 4.82842 3.90451 3.60207 4.86785 2.69788C5.83119 1.79368 7.13775 1.28571 8.50012 1.28571C9.86249 1.28571 11.1691 1.79368 12.1324 2.69788C13.0957 3.60207 13.6369 4.82842 13.6369 6.10714V9.80578L15.3978 12.8571H1.60233Z" fill="#DBDBDB"/>
</svg>
