<svg width="11" height="13" viewBox="0 0 11 13" fill="none" xmlns="http://www.w3.org/2000/svg">
<path d="M9.10643 4.58824H7.85714V0.764706C7.85714 0.344118 7.50357 0 7.07143 0H3.92857C3.49643 0 3.14286 0.344118 3.14286 0.764706V4.58824H1.89357C1.19429 4.58824 0.840714 5.41412 1.33571 5.89588L4.94214 9.40588C5.24857 9.70412 5.74357 9.70412 6.05 9.40588L9.65643 5.89588C10.1514 5.41412 9.80571 4.58824 9.10643 4.58824ZM0 12.2353C0 12.6559 0.353571 13 0.785714 13H10.2143C10.6464 13 11 12.6559 11 12.2353C11 11.8147 10.6464 11.4706 10.2143 11.4706H0.785714C0.353571 11.4706 0 11.8147 0 12.2353Z" fill="#111111"/>
</svg>
