<svg width="7" height="4" viewBox="0 0 7 4" fill="none" xmlns="http://www.w3.org/2000/svg">
<path d="M0.154081 0.15296C0.252768 0.0550197 0.3866 0 0.526144 0C0.665688 0 0.79952 0.0550197 0.898207 0.15296L3.50318 2.73897L6.10815 0.15296C6.2074 0.0577953 6.34033 0.0051374 6.47832 0.00632771C6.6163 0.00751802 6.74829 0.0624612 6.84586 0.159323C6.94344 0.256186 6.99878 0.387217 6.99998 0.524195C7.00118 0.661174 6.94814 0.79314 6.85227 0.891671L3.87524 3.84704C3.77655 3.94498 3.64272 4 3.50318 4C3.36363 4 3.2298 3.94498 3.13111 3.84704L0.154081 0.891671C0.0554229 0.793701 0 0.660844 0 0.522315C0 0.383786 0.0554229 0.250929 0.154081 0.15296Z" fill="#7E7E7E"/>
</svg>
