<svg width="28" height="24" viewBox="0 0 28 24" fill="none" xmlns="http://www.w3.org/2000/svg">
<path d="M24.7998 10.962C25.3528 11.582 25.3528 12.419 24.7998 13.038C23.058 14.987 18.879 19 14 19C9.121 19 4.942 14.987 3.20017 13.038C2.93112 12.7411 2.78506 12.3759 2.78506 12C2.78506 11.6241 2.93112 11.2589 3.20017 10.962C4.942 9.013 9.121 5 14 5C18.879 5 23.058 9.013 24.7998 10.962V10.962Z" stroke="black" stroke-width="2" stroke-linecap="round" stroke-linejoin="round"/>
<path d="M14 15C15.933 15 17.5 13.6569 17.5 12C17.5 10.3431 15.933 9 14 9C12.067 9 10.5 10.3431 10.5 12C10.5 13.6569 12.067 15 14 15Z" stroke="black" stroke-width="2" stroke-linecap="round" stroke-linejoin="round"/>
</svg>
