<svg width="17" height="16" viewBox="0 0 17 16" fill="none" xmlns="http://www.w3.org/2000/svg">
<g clip-path="url(#clip0_332_4273)">
<path d="M7.18104 2.82667C7.63993 2.71925 8.10975 2.66556 8.58104 2.66667C13.2477 2.66667 15.9144 8 15.9144 8C15.5097 8.75707 15.0271 9.46982 14.4744 10.1267M9.99438 9.41333C9.81128 9.60983 9.59048 9.76744 9.34515 9.87675C9.09981 9.98606 8.83498 10.0448 8.56644 10.0496C8.2979 10.0543 8.03115 10.0049 7.78212 9.90433C7.53308 9.80374 7.30686 9.65402 7.11694 9.4641C6.92703 9.27418 6.77731 9.04796 6.67672 8.79893C6.57613 8.54989 6.52673 8.28315 6.53147 8.01461C6.5362 7.74606 6.59498 7.48123 6.7043 7.2359C6.81361 6.99057 6.97121 6.76976 7.16771 6.58667M12.541 11.96C11.4014 12.8287 10.0138 13.3099 8.58104 13.3333C3.91438 13.3333 1.24771 8 1.24771 8C2.07697 6.4546 3.22713 5.1044 4.62104 4.04L12.541 11.96Z" stroke="#D0D0D0" stroke-width="2" stroke-linecap="round" stroke-linejoin="round"/>
<path d="M1.24771 0.666664L15.9144 15.3333" stroke="#D0D0D0" stroke-width="2" stroke-linecap="round" stroke-linejoin="round"/>
</g>
<defs>
<clipPath id="clip0_332_4273">
<rect width="16" height="16" fill="white" transform="translate(0.581055)"/>
</clipPath>
</defs>
</svg>
