<svg width="107" height="79" viewBox="0 0 107 79" fill="none" xmlns="http://www.w3.org/2000/svg">
<rect x="13.35" y="5.35" width="73.3" height="9.3" rx="4.65" stroke="#EEEEEE" stroke-width="0.7"/>
<rect x="13.35" y="69.35" width="73.3" height="9.3" rx="4.65" stroke="#EEEEEE" stroke-width="0.7"/>
<rect x="7.35" y="21.35" width="89.3" height="9.3" rx="4.65" stroke="#EEEEEE" stroke-width="0.7"/>
<rect x="7.35" y="53.35" width="89.3" height="9.3" rx="4.65" stroke="#EEEEEE" stroke-width="0.7"/>
<rect x="0.35" y="37.35" width="106.3" height="9.3" rx="4.65" stroke="#EEEEEE" stroke-width="0.7"/>
<circle cx="53.5" cy="41.5" r="34" fill="white" stroke="#8A8A8A"/>
<path d="M50.7787 33.3363H56.2209C56.2209 32.6146 55.9342 31.9225 55.4239 31.4122C54.9136 30.9019 54.2215 30.6152 53.4998 30.6152C52.7781 30.6152 52.086 30.9019 51.5757 31.4122C51.0654 31.9225 50.7787 32.6146 50.7787 33.3363ZM48.0575 33.3363C48.0575 31.8929 48.6309 30.5087 49.6515 29.488C50.6722 28.4674 52.0564 27.894 53.4998 27.894C54.9432 27.894 56.3274 28.4674 57.3481 29.488C58.3687 30.5087 58.9421 31.8929 58.9421 33.3363H65.7449C66.1057 33.3363 66.4518 33.4796 66.7069 33.7348C66.9621 33.99 67.1054 34.336 67.1054 34.6969C67.1054 35.0577 66.9621 35.4038 66.7069 35.6589C66.4518 35.9141 66.1057 36.0574 65.7449 36.0574H64.5449L63.3394 50.1257C63.2235 51.4841 62.6019 52.7496 61.5977 53.6717C60.5934 54.5939 59.2796 55.1055 57.9162 55.1053H49.0834C47.72 55.1055 46.4062 54.5939 45.4019 53.6717C44.3977 52.7496 43.7761 51.4841 43.6602 50.1257L42.4547 36.0574H41.2547C40.8939 36.0574 40.5478 35.9141 40.2927 35.6589C40.0375 35.4038 39.8942 35.0577 39.8942 34.6969C39.8942 34.336 40.0375 33.99 40.2927 33.7348C40.5478 33.4796 40.8939 33.3363 41.2547 33.3363H48.0575ZM57.5815 41.4997C57.5815 41.1388 57.4381 40.7928 57.183 40.5376C56.9278 40.2825 56.5818 40.1391 56.2209 40.1391C55.8601 40.1391 55.514 40.2825 55.2589 40.5376C55.0037 40.7928 54.8604 41.1388 54.8604 41.4997V46.9419C54.8604 47.3028 55.0037 47.6488 55.2589 47.904C55.514 48.1592 55.8601 48.3025 56.2209 48.3025C56.5818 48.3025 56.9278 48.1592 57.183 47.904C57.4381 47.6488 57.5815 47.3028 57.5815 46.9419V41.4997ZM50.7787 40.1391C51.1395 40.1391 51.4856 40.2825 51.7407 40.5376C51.9959 40.7928 52.1392 41.1388 52.1392 41.4997V46.9419C52.1392 47.3028 51.9959 47.6488 51.7407 47.904C51.4856 48.1592 51.1395 48.3025 50.7787 48.3025C50.4178 48.3025 50.0718 48.1592 49.8166 47.904C49.5615 47.6488 49.4181 47.3028 49.4181 46.9419V41.4997C49.4181 41.1388 49.5615 40.7928 49.8166 40.5376C50.0718 40.2825 50.4178 40.1391 50.7787 40.1391ZM46.3704 49.8944C46.4284 50.5738 46.7394 51.2068 47.2418 51.6679C47.7442 52.129 48.4015 52.3846 49.0834 52.3842H57.9162C58.5977 52.3839 59.2542 52.128 59.7561 51.6669C60.2579 51.2059 60.5685 50.5734 60.6264 49.8944L61.8128 36.0574H45.1868L46.3732 49.8944H46.3704Z" fill="#8A8A8A"/>
<circle cx="23.5" cy="2.5" r="2.15" fill="white" stroke="#8A8A8A" stroke-width="0.7"/>
<circle cx="87.5" cy="73.5" r="4.15" fill="white" stroke="#8A8A8A" stroke-width="0.7"/>
</svg>
