<svg width="69" height="69" viewBox="0 0 69 69" fill="none" xmlns="http://www.w3.org/2000/svg">
<circle cx="34.5" cy="34.5" r="34" fill="white" stroke="#8A8A8A"/>
<path d="M31.7787 26.3363H37.2209C37.2209 25.6146 36.9342 24.9225 36.4239 24.4122C35.9136 23.9019 35.2215 23.6152 34.4998 23.6152C33.7781 23.6152 33.086 23.9019 32.5757 24.4122C32.0654 24.9225 31.7787 25.6146 31.7787 26.3363ZM29.0575 26.3363C29.0575 24.8929 29.6309 23.5087 30.6515 22.488C31.6722 21.4674 33.0564 20.894 34.4998 20.894C35.9432 20.894 37.3274 21.4674 38.3481 22.488C39.3687 23.5087 39.9421 24.8929 39.9421 26.3363H46.7449C47.1057 26.3363 47.4518 26.4796 47.7069 26.7348C47.9621 26.99 48.1054 27.336 48.1054 27.6969C48.1054 28.0577 47.9621 28.4038 47.7069 28.6589C47.4518 28.9141 47.1057 29.0574 46.7449 29.0574H45.5449L44.3394 43.1257C44.2235 44.4841 43.6019 45.7496 42.5977 46.6717C41.5934 47.5939 40.2796 48.1055 38.9162 48.1053H30.0834C28.72 48.1055 27.4062 47.5939 26.4019 46.6717C25.3977 45.7496 24.7761 44.4841 24.6602 43.1257L23.4547 29.0574H22.2547C21.8939 29.0574 21.5478 28.9141 21.2927 28.6589C21.0375 28.4038 20.8942 28.0577 20.8942 27.6969C20.8942 27.336 21.0375 26.99 21.2927 26.7348C21.5478 26.4796 21.8939 26.3363 22.2547 26.3363H29.0575ZM38.5815 34.4997C38.5815 34.1388 38.4381 33.7928 38.183 33.5376C37.9278 33.2825 37.5818 33.1391 37.2209 33.1391C36.8601 33.1391 36.514 33.2825 36.2589 33.5376C36.0037 33.7928 35.8604 34.1388 35.8604 34.4997V39.9419C35.8604 40.3028 36.0037 40.6488 36.2589 40.904C36.514 41.1592 36.8601 41.3025 37.2209 41.3025C37.5818 41.3025 37.9278 41.1592 38.183 40.904C38.4381 40.6488 38.5815 40.3028 38.5815 39.9419V34.4997ZM31.7787 33.1391C32.1395 33.1391 32.4856 33.2825 32.7407 33.5376C32.9959 33.7928 33.1392 34.1388 33.1392 34.4997V39.9419C33.1392 40.3028 32.9959 40.6488 32.7407 40.904C32.4856 41.1592 32.1395 41.3025 31.7787 41.3025C31.4178 41.3025 31.0718 41.1592 30.8166 40.904C30.5615 40.6488 30.4181 40.3028 30.4181 39.9419V34.4997C30.4181 34.1388 30.5615 33.7928 30.8166 33.5376C31.0718 33.2825 31.4178 33.1391 31.7787 33.1391ZM27.3704 42.8944C27.4284 43.5738 27.7394 44.2068 28.2418 44.6679C28.7442 45.129 29.4015 45.3846 30.0834 45.3842H38.9162C39.5977 45.3839 40.2542 45.128 40.7561 44.6669C41.2579 44.2059 41.5685 43.5734 41.6264 42.8944L42.8128 29.0574H26.1868L27.3732 42.8944H27.3704Z" fill="#8A8A8A"/>
</svg>
