<svg width="22" height="25" viewBox="0 0 22 25" fill="none" xmlns="http://www.w3.org/2000/svg">
<mask id="mask0_1152_97" style="mask-type:alpha" maskUnits="userSpaceOnUse" x="0" y="0" width="22" height="25">
<path d="M5.76923 11.6667H4.94506V13.3333H5.76923V11.6667ZM15.6593 13.3333H16.4835V11.6667H15.6593V13.3333ZM5.76923 6.66667H4.94506V8.33333H5.76923V6.66667ZM9.06593 8.33333H9.89011V6.66667H9.06593V8.33333ZM15.6593 0.833333L16.2429 0.243333L16.0005 0H15.6593V0.833333ZM20.6044 5.83333H21.4286V5.48833L21.1879 5.24333L20.6044 5.83333V5.83333ZM11.5385 18.3333L10.9549 18.9233L11.5385 18.3333ZM10.7143 19.1667L11.0835 19.9117L11.1495 19.8783L11.2088 19.8333L10.7143 19.1667ZM5.76923 13.3333H15.6593V11.6667H5.76923V13.3333ZM5.76923 8.33333H9.06593V6.66667H5.76923V8.33333ZM18.956 23.3333H2.47253V25H18.956V23.3333ZM1.64835 22.5V2.5H0V22.5H1.64835ZM2.47253 1.66667H15.6593V0H2.47253V1.66667ZM19.7802 5.83333V22.5H21.4286V5.83333H19.7802ZM15.0758 1.42333L20.0209 6.42333L21.1879 5.24333L16.2429 0.243333L15.0758 1.42333V1.42333ZM2.47253 23.3333C2.25394 23.3333 2.04431 23.2455 1.88975 23.0893C1.73518 22.933 1.64835 22.721 1.64835 22.5H0C0 23.163 0.260498 23.7989 0.724187 24.2678C1.18788 24.7366 1.81677 25 2.47253 25V23.3333ZM18.956 25C19.6118 25 20.2407 24.7366 20.7044 24.2678C21.1681 23.7989 21.4286 23.163 21.4286 22.5H19.7802C19.7802 22.721 19.6934 22.933 19.5388 23.0893C19.3843 23.2455 19.1746 23.3333 18.956 23.3333V25ZM1.64835 2.5C1.64835 2.27899 1.73518 2.06702 1.88975 1.91074C2.04431 1.75446 2.25394 1.66667 2.47253 1.66667V0C1.81677 0 1.18788 0.263392 0.724187 0.732233C0.260498 1.20107 0 1.83696 0 2.5H1.64835ZM7.37473 19.43C7.55769 18.875 8.07857 18.36 8.74286 18.18C9.36429 18.0117 10.1637 18.1217 10.9549 18.9233L12.122 17.7433C10.9352 16.5433 9.53571 16.2383 8.31593 16.57C7.14066 16.89 6.17802 17.7917 5.81044 18.9033L7.37637 19.43H7.37473ZM10.9549 18.9233C11.0013 18.9689 11.0448 19.0173 11.0852 19.0683L12.3874 18.045C12.3051 17.9395 12.2165 17.8393 12.122 17.745L10.9549 18.9233ZM11.0852 19.0683C11.2137 19.235 11.1841 19.2883 11.189 19.2517C11.1923 19.2283 11.1989 19.2667 11.1 19.3567C10.9575 19.4771 10.7959 19.5723 10.622 19.6383C10.413 19.7233 10.1951 19.7837 9.97253 19.8183C9.83674 19.8445 9.69786 19.8501 9.56044 19.835C9.53242 19.8283 9.59011 19.835 9.67582 19.8967C9.78094 19.9787 9.8582 20.0917 9.89689 20.2202C9.93558 20.3486 9.93379 20.486 9.89176 20.6133C9.88242 20.6409 9.86968 20.6673 9.85385 20.6917C9.85055 20.695 9.87857 20.6583 9.97253 20.58C10.1604 20.4267 10.5066 20.2033 11.0835 19.9133L10.3451 18.4217C9.72363 18.735 9.25714 19.0217 8.93736 19.2833C8.77519 19.4113 8.63101 19.561 8.50879 19.7283C8.35334 19.9387 8.27209 20.1958 8.27802 20.4583C8.28514 20.612 8.32667 20.7621 8.39948 20.8972C8.47229 21.0323 8.57448 21.149 8.69835 21.2383C8.88462 21.3783 9.09066 21.4383 9.24231 21.47C9.55055 21.5317 9.90165 21.515 10.2198 21.4667C10.8462 21.37 11.6571 21.0967 12.2093 20.59C12.4962 20.325 12.7681 19.945 12.8258 19.4467C12.8852 18.9367 12.7038 18.4583 12.3857 18.0467L11.0835 19.0683H11.0852ZM11.2088 19.8333C11.4725 19.6294 11.7591 19.4577 12.0626 19.3217L11.4082 17.7917C11.0126 17.965 10.617 18.2 10.2198 18.5L11.2088 19.8333V19.8333ZM12.0626 19.3217C13.1341 18.8533 14.0918 19.1 15.0725 19.5717C15.3198 19.6917 15.5604 19.8217 15.8044 19.955C16.0418 20.085 16.2923 20.2233 16.5297 20.3467C16.9846 20.5783 17.5484 20.8333 18.1319 20.8333V19.1667C17.9769 19.1667 17.7231 19.0883 17.2747 18.86C17.0637 18.75 16.8429 18.6267 16.589 18.4883C16.3418 18.3533 16.0681 18.205 15.7813 18.0683C14.6308 17.5133 13.1258 17.0417 11.4082 17.7917L12.0626 19.3217V19.3217Z" fill="#111111"/>
</mask>
<g mask="url(#mask0_1152_97)">
<rect x="-5.97095" y="-4.18527" width="29.2969" height="35.1562" fill="#262626"/>
</g>
</svg>
