<svg width="36" height="26" viewBox="0 0 36 26" fill="none" xmlns="http://www.w3.org/2000/svg">
<path d="M24 13.5909C24 13.4186 23.9438 13.277 23.8313 13.1662L17.2313 6.66619C17.1188 6.5554 16.975 6.5 16.8 6.5C16.625 6.5 16.4813 6.5554 16.3688 6.66619L9.7875 13.1477C9.6625 13.2955 9.6 13.4432 9.6 13.5909C9.6 13.7633 9.65625 13.9048 9.76875 14.0156C9.88125 14.1264 10.025 14.1818 10.2 14.1818H14.4V20.6818C14.4 20.8419 14.4594 20.9803 14.5781 21.0973C14.6969 21.2143 14.8375 21.2727 15 21.2727H18.6C18.7625 21.2727 18.9031 21.2143 19.0219 21.0973C19.1406 20.9803 19.2 20.8419 19.2 20.6818V14.1818H23.4C23.5625 14.1818 23.7031 14.1233 23.8219 14.0064C23.9406 13.8894 24 13.7509 24 13.5909ZM36 18.9091C36 20.8665 35.2969 22.5376 33.8906 23.9226C32.4844 25.3075 30.7875 26 28.8 26H8.4C6.0875 26 4.10938 25.1906 2.46563 23.5717C0.821875 21.9529 0 20.0047 0 17.7273C0 16.1269 0.4375 14.6496 1.3125 13.2955C2.1875 11.9413 3.3625 10.9257 4.8375 10.2486C4.8125 9.87926 4.8 9.61458 4.8 9.45455C4.8 6.8447 5.7375 4.61648 7.6125 2.76989C9.4875 0.923295 11.75 0 14.4 0C16.35 0 18.1344 0.535511 19.7531 1.60653C21.3719 2.67756 22.55 4.09943 23.2875 5.87216C24.175 5.1089 25.2125 4.72727 26.4 4.72727C27.725 4.72727 28.8563 5.18892 29.7938 6.11222C30.7313 7.03551 31.2 8.14962 31.2 9.45455C31.2 10.3902 30.9438 11.2396 30.4313 12.0028C32.0563 12.3845 33.3906 13.2185 34.4344 14.505C35.4781 15.7914 36 17.2595 36 18.9091Z" fill="#8A8A8A"/>
</svg>
