<svg width="9" height="12" viewBox="0 0 9 12" fill="none" xmlns="http://www.w3.org/2000/svg">
<path d="M8.28101 2.5H6.90601V1.40625C6.90601 0.923633 6.59771 0.53125 6.21851 0.53125H2.78101C2.40181 0.53125 2.09351 0.923633 2.09351 1.40625V2.5H0.718506C0.528369 2.5 0.374756 2.69551 0.374756 2.9375V3.375C0.374756 3.43516 0.413428 3.48438 0.460693 3.48438H1.10952L1.37485 10.6348C1.39204 11.101 1.69497 11.4688 2.06128 11.4688H6.93823C7.30562 11.4688 7.60747 11.1023 7.62466 10.6348L7.88999 3.48438H8.53882C8.58608 3.48438 8.62476 3.43516 8.62476 3.375V2.9375C8.62476 2.69551 8.47114 2.5 8.28101 2.5ZM6.13257 2.5H2.86694V1.51562H6.13257V2.5Z" fill="#222222"/>
</svg>
