<svg width="12" height="12" viewBox="0 0 12 12" fill="none" xmlns="http://www.w3.org/2000/svg">
<g clip-path="url(#clip0_1266_17888)">
<path d="M1.40675 7.73322L0.773417 10.4666C0.751569 10.5665 0.752318 10.67 0.775609 10.7696C0.7989 10.8692 0.844145 10.9623 0.908038 11.0422C0.971932 11.1221 1.05286 11.1866 1.14491 11.2312C1.23696 11.2758 1.33781 11.2993 1.44008 11.2999C1.48774 11.3047 1.53576 11.3047 1.58342 11.2999L4.33342 10.6666L9.61342 5.40655L6.66675 2.46655L1.40675 7.73322Z" fill="#222222"/>
<path d="M11.2733 2.77324L9.30666 0.806575C9.17736 0.67793 9.00238 0.605713 8.81999 0.605713C8.6376 0.605713 8.46262 0.67793 8.33332 0.806575L7.23999 1.89991L10.1833 4.84324L11.2767 3.74991C11.3406 3.6856 11.3913 3.60931 11.4258 3.5254C11.4602 3.44148 11.4778 3.3516 11.4775 3.26088C11.4772 3.17017 11.459 3.08041 11.424 2.99673C11.3889 2.91305 11.3377 2.83711 11.2733 2.77324V2.77324Z" fill="#222222"/>
</g>
<defs>
<clipPath id="clip0_1266_17888">
<rect width="12" height="12" fill="white"/>
</clipPath>
</defs>
</svg>
