<svg width="42" height="49" viewBox="0 0 42 49" fill="none" xmlns="http://www.w3.org/2000/svg">
<path d="M41.35 21.0019C41.3512 20.6274 41.2783 20.2564 41.1353 19.9103C40.9924 19.5642 40.7823 19.2499 40.5172 18.9854L23.0176 1.48587C23.0176 1.48582 23.0175 1.48577 23.0175 1.48573C22.7528 1.22081 22.4386 1.01065 22.0926 0.867246C21.7466 0.723822 21.3758 0.65 21.0012 0.65C20.6267 0.65 20.2559 0.723822 19.9099 0.867246C19.5639 1.01067 19.2496 1.22088 18.9849 1.48587L1.48501 18.9857L1.48472 18.986C0.991029 19.4809 0.694528 20.1386 0.650689 20.8363L0.65 20.8472V20.8582V44.9657C0.65 45.7216 0.950267 46.4465 1.48475 46.981C2.01923 47.5154 2.74413 47.8157 3.5 47.8157H38.5C39.2559 47.8157 39.9808 47.5154 40.5153 46.981C41.0497 46.4465 41.35 45.7216 41.35 44.9657V21.0019ZM41.35 21.0019L41 21.0007M41.35 21.0019V21.0007H41M41 21.0007V44.9657C41 45.6288 40.7366 46.2646 40.2678 46.7335C39.7989 47.2023 39.163 47.4657 38.5 47.4657H3.5C2.83696 47.4657 2.20107 47.2023 1.73223 46.7335C1.26339 46.2646 1 45.6288 1 44.9657V20.8582M41 21.0007C41.0011 20.6725 40.9371 20.3473 40.8118 20.0439C40.6865 19.7406 40.5024 19.465 40.27 19.2332L1 20.8582M1 20.8582C1.0385 20.2455 1.29891 19.6678 1.7325 19.2332L1 20.8582ZM21 7.53069L35.65 22.1807V42.1157H6.35V22.1807L21 7.53069ZM31 32.8157H31.35V32.4657V27.4657V27.1157H31H11H10.65V27.4657V32.4657V32.8157H11H31Z" fill="black" stroke="black" stroke-width="0.7"/>
</svg>
