<svg width="42" height="49" viewBox="0 0 42 49" fill="none" xmlns="http://www.w3.org/2000/svg">
<path d="M41.35 21.5362C41.3512 21.1617 41.2783 20.7907 41.1353 20.4446C40.9924 20.0985 40.7823 19.7842 40.5172 19.5197L23.0176 2.02017C23.0176 2.02012 23.0175 2.02008 23.0175 2.02003C22.7528 1.75511 22.4386 1.54495 22.0926 1.40155C21.7466 1.25812 21.3758 1.1843 21.0012 1.1843C20.6267 1.1843 20.2559 1.25812 19.9099 1.40155C19.5639 1.54497 19.2496 1.75519 18.9849 2.02017L1.48501 19.52L1.48472 19.5203C0.991029 20.0152 0.694528 20.6729 0.650689 21.3706L0.65 21.3815V21.3925V45.5C0.65 46.2559 0.950267 46.9808 1.48475 47.5153C2.01923 48.0497 2.74413 48.35 3.5 48.35H38.5C39.2559 48.35 39.9808 48.0497 40.5153 47.5153C41.0497 46.9808 41.35 46.2559 41.35 45.5V21.5362ZM41.35 21.5362L41 21.535M41.35 21.5362V21.535H41M41 21.535V45.5C41 46.1631 40.7366 46.7989 40.2678 47.2678C39.7989 47.7366 39.163 48 38.5 48H3.5C2.83696 48 2.20107 47.7366 1.73223 47.2678C1.26339 46.7989 1 46.1631 1 45.5V21.3925M41 21.535C41.0011 21.2068 40.9371 20.8816 40.8118 20.5782C40.6865 20.2749 40.5024 19.9993 40.27 19.7675L1 21.3925M1 21.3925C1.0385 20.7798 1.29891 20.2021 1.7325 19.7675L1 21.3925ZM21 8.06499L35.65 22.715V42.65H6.35V22.715L21 8.06499ZM31 33.35H31.35V33V28V27.65H31H11H10.65V28V33V33.35H11H31Z" fill="black" stroke="black" stroke-width="0.7"/>
</svg>
